# SM_Generic_Ocean_Tile_Bumps_01.glb
v 45 5.308856 900.000122
v 45 3.616518 854.999939
v 0 5.308852 900.000122
v 0 5.308854 854.999939
v 89.999893 5.308854 900.000122
v 89.999893 10.054464 854.999939
v 89.999893 6.925727 810
v 45 1.018873 810
v 0 5.308854 810
v 135.000107 0.408261 900.000122
v 135.000107 1.628401 854.999939
v 180.000107 0.408261 900.000122
v 180.000107 8.701644 854.999939
v 180.000107 6.807018 810
v 135.000107 2.819355 810
v 225 5.308855 900.000122
v 225 1.2267 854.999939
v 270 5.308857 900.000122
v 270 0.787816 854.999939
v 225 2.338301 810
v 270 6.122169 810
v 315.000122 -0.67685 900.000122
v 315.000122 7.952503 854.999939
v 360.000244 5.308854 900.000122
v 360.000244 4.87339 854.999939
v 315.000122 4.46942 810
v 360.000244 3.63173 810
v 405 0.408259 900.000122
v 405 11.183401 854.999939
v 450 0.408259 900.000122
v 450 6.649782 854.999939
v 450 7.738121 810
v 405 11.339635 810
v 495.000244 5.308854 900.000122
v 495.000244 1.661063 854.999939
v 540 -0.683654 900.000122
v 540 2.129275 854.999939
v 540 0.698937 810
v 495.000244 7.210754 810
v 585.000244 5.308853 900.000122
v 585.000244 1.98669 854.999939
v 630 -0.676853 900.000122
v 630 5.218231 854.999939
v 585.000244 3.224882 810
v 630 9.850858 810
v 675 5.308855 900.000122
v 675 7.289732 854.999939
v 720.000244 5.308854 900.000122
v 720.000244 7.119275 854.999939
v 675 8.831237 810
v 720.000244 6.107979 810
v 765 -0.676855 900.000122
v 765 3.26593 854.999939
v 810.000122 -0.676855 900.000122
v 810.000122 9.332237 854.999939
v 765 10.889759 810
v 810.000122 10.49987 810
v 855 5.308855 900.000122
v 855 1.69612 854.999939
v 900 5.308855 900.000122
v 900 5.308854 854.999939
v 855 3.919757 810
v 900 5.308854 810
v 0 12.319787 765.000122
v 45 10.097021 765.000122
v 89.999893 3.863536 765.000122
v 45 3.722273 720.000061
v 89.999893 7.506271 720.000061
v 0 12.319787 720.000061
v 135.000107 8.861108 765.000122
v 180.000107 2.467262 765.000122
v 180.000107 7.437349 720.000061
v 135.000107 5.776659 720.000061
v 225 0.016105 765.000122
v 270 1.46836 765.000122
v 225 0.091205 720.000061
v 270 9.510957 720.000061
v 315.000122 8.347639 765.000122
v 360.000244 1.637398 765.000122
v 360.000244 11.539336 720.000061
v 315.000122 7.005809 720.000061
v 405 0.247077 765.000122
v 450 1.989521 765.000122
v 405 4.971068 720.000061
v 450 7.422229 720.000061
v 495.000244 6.191846 765.000122
v 540 10.16181 765.000122
v 495.000244 10.79146 720.000061
v 540 6.804417 720.000061
v 585.000244 6.137727 765.000122
v 630 6.396512 765.000122
v 585.000244 1.681878 720.000061
v 630 10.588333 720.000061
v 675 9.305863 765.000122
v 720.000244 11.286546 765.000122
v 675 10.014354 720.000061
v 720.000244 4.783743 720.000061
v 765 6.102341 765.000122
v 810.000122 10.654806 765.000122
v 765 9.590538 720.000061
v 810.000122 6.708719 720.000061
v 855 9.09739 765.000122
v 900 12.319787 765.000122
v 900 12.319788 720.000061
v 855 7.399435 720.000061
v 45 6.343893 675.000122
v 0 5.308854 675.000122
v 89.999893 3.415142 675.000122
v 89.999893 3.844911 630
v 45 0.116662 630
v 0 -0.531499 630
v 135.000107 9.463465 675.000122
v 180.000107 5.59879 675.000122
v 135.000107 6.761873 630
v 180.000107 7.698664 630
v 225 10.828341 675.000122
v 270 2.600793 675.000122
v 225 0.471536 630
v 270 2.104565 630
v 315.000122 5.322844 675.000122
v 360.000244 7.973854 675.000122
v 315.000122 9.570636 630
v 360.000244 9.654518 630
v 405 6.681184 675.000122
v 450 8.785617 675.000122
v 405 11.424814 630
v 450 8.5393 630
v 495.000244 10.132107 675.000122
v 540 9.999805 675.000122
v 495.000244 10.869568 630
v 540 4.276804 630
v 585.000244 10.21653 675.000122
v 630 7.214673 675.000122
v 630 8.906879 630
v 585.000244 3.321384 630
v 675 2.846535 675.000122
v 720.000244 11.340796 675.000122
v 720.000244 10.317459 630
v 675 0.887446 630
v 765 7.493446 675.000122
v 810.000122 11.524709 675.000122
v 810.000122 11.465165 630
v 765 1.6402 630
v 855 2.820369 675.000122
v 900 5.308854 675.000122
v 855 3.912111 630
v 900 -0.531499 630
v 45 4.627164 585.000061
v 0 5.308855 585.000061
v 89.999893 9.44881 585.000061
v 45 6.370546 540.000061
v 89.999893 1.010499 540.000061
v 0 5.308854 540.000061
v 135.000107 10.392 585.000061
v 180.000107 9.459164 585.000061
v 180.000107 4.158969 540.000061
v 135.000107 2.753026 540.000061
v 225 7.60285 585.000061
v 270 1.429326 585.000061
v 225 3.598082 540.000061
v 270 2.09585 540.000061
v 315.000122 6.486204 585.000061
v 360.000244 8.022708 585.000061
v 315.000122 9.399006 540.000061
v 360.000244 6.959559 540.000061
v 405 10.418373 585.000061
v 450 5.407956 585.000061
v 450 7.91758 540.000061
v 405 1.872644 540.000061
v 495.000244 1.992563 585.000061
v 540 4.596735 585.000061
v 540 7.377948 540.000061
v 495.000244 10.40094 540.000061
v 585.000244 10.325403 585.000061
v 630 0.574646 585.000061
v 630 1.97955 540.000061
v 585.000244 9.626479 540.000061
v 675 0.224376 585.000061
v 720.000244 3.293523 585.000061
v 675 0.185538 540.000061
v 720.000244 6.823248 540.000061
v 765 5.160825 585.000061
v 810.000122 4.549236 585.000061
v 810.000122 6.603242 540.000061
v 765 7.062314 540.000061
v 855 3.181795 585.000061
v 900 5.308854 585.000061
v 855 6.087221 540.000061
v 900 5.308852 540.000061
v 0 12.319787 495.000031
v 45 8.746 495.000031
v 89.999893 3.128227 495.000031
v 45 5.415217 450
v 89.999893 2.919978 450
v 0 5.308852 450
v 135.000107 3.981632 495.000031
v 180.000107 11.098207 495.000031
v 180.000107 10.751881 450
v 135.000107 3.221981 450
v 225 0.986807 495.000031
v 270 6.327578 495.000031
v 225 8.822961 450
v 270 4.611821 450
v 315.000122 4.821919 495.000031
v 360.000244 5.259599 495.000031
v 360.000244 10.013508 450
v 315.000122 10.975088 450
v 405 9.503657 495.000031
v 450 8.195318 495.000031
v 450 7.997607 450
v 405 0.301067 450
v 495.000244 10.915333 495.000031
v 540 9.621077 495.000031
v 495.000244 3.237808 450
v 540 0.928897 450
v 585.000244 8.092314 495.000031
v 630 11.073044 495.000031
v 630 3.136695 450
v 585.000244 4.316991 450
v 675 3.141862 495.000031
v 720.000244 3.246829 495.000031
v 675 6.517363 450
v 720.000244 6.662931 450
v 765 2.514653 495.000031
v 810.000122 0.82956 495.000031
v 765 1.972934 450
v 810.000122 6.087172 450
v 855 5.693701 495.000031
v 900 12.319788 495.000031
v 900 5.308852 450
v 855 1.965462 450
v 45 4.115218 405
v 0 -0.5315 405
v 89.999893 7.414979 405
v 45 2.370141 359.999969
v 89.999893 9.048083 359.999969
v 0 5.308854 359.999969
v 135.000107 9.078668 405
v 180.000107 3.78217 405
v 135.000107 1.793549 359.999969
v 180.000107 5.217196 359.999969
v 225 10.366763 405
v 270 7.456825 405
v 225 11.021297 359.999969
v 270 3.197037 359.999969
v 315.000122 1.418068 405
v 360.000244 10.961631 405
v 315.000122 8.457735 359.999969
v 360.000244 9.117276 359.999969
v 405 2.182669 405
v 450 1.177876 405
v 405 8.621637 359.999969
v 450 10.904135 359.999969
v 495.000244 5.144352 405
v 540 4.547274 405
v 495.000244 2.3775 359.999969
v 540 2.143805 359.999969
v 585.000244 9.697136 405
v 630 5.814794 405
v 585.000244 6.861947 359.999969
v 630 7.070837 359.999969
v 675 1.8536 405
v 720.000244 2.277264 405
v 720.000244 0.562673 359.999969
v 675 7.489802 359.999969
v 765 1.831216 405
v 810.000122 9.988002 405
v 765 10.753717 359.999969
v 810.000122 1.16487 359.999969
v 855 9.4986 405
v 900 -0.5315 405
v 900 5.308854 359.999969
v 855 3.779151 359.999969
v 0 5.308854 315
v 45 7.417526 315
v 89.999893 11.460235 315
v 89.999893 7.292863 270.000061
v 45 6.269566 270.000061
v 0 12.319784 270.000061
v 135.000107 10.272326 315
v 180.000107 8.539622 315
v 135.000107 1.601403 270.000061
v 180.000107 2.276538 270.000061
v 225 2.533885 315
v 270 11.430099 315
v 270 5.957789 270.000061
v 225 3.055516 270.000061
v 315.000122 10.545638 315
v 360.000244 5.36844 315
v 315.000122 7.718603 270.000061
v 360.000244 1.29365 270.000061
v 405 5.647018 315
v 450 4.701908 315
v 450 5.263082 270.000061
v 405 11.174379 270.000061
v 495.000244 5.647668 315
v 540 10.725392 315
v 540 1.366644 270.000061
v 495.000244 5.860984 270.000061
v 585.000244 8.135908 315
v 630 9.353996 315
v 585.000244 8.874989 270.000061
v 630 1.04638 270.000061
v 675 6.370719 315
v 720.000244 7.095422 315
v 675 5.116135 270.000061
v 720.000244 2.933717 270.000061
v 765 3.643681 315
v 810.000122 1.812518 315
v 765 0.710166 270.000061
v 810.000122 10.721912 270.000061
v 855 6.125739 315
v 900 5.308855 315
v 855 5.500154 270.000061
v 900 12.319787 270.000061
v 45 1.858469 225.000107
v 0 12.319788 225.000107
v 89.999893 8.55133 225.000107
v 89.999893 1.056184 180.000061
v 45 4.315394 180.000061
v 0 -0.531501 180.000061
v 135.000107 0.217637 225.000107
v 180.000107 9.548721 225.000107
v 135.000107 7.824479 180.000061
v 180.000107 6.261252 180.000061
v 225 0.404001 225.000107
v 270 11.408867 225.000107
v 225 8.560585 180.000061
v 270 4.719429 180.000061
v 315.000122 7.700647 225.000107
v 360.000244 10.418234 225.000107
v 360.000244 9.315047 180.000061
v 315.000122 1.249624 180.000061
v 405 5.810364 225.000107
v 450 0.62882 225.000107
v 450 7.819916 180.000061
v 405 10.922984 180.000061
v 495.000244 4.311383 225.000107
v 540 0.195637 225.000107
v 540 7.448149 180.000061
v 495.000244 5.811911 180.000061
v 585.000244 7.144438 225.000107
v 630 7.85512 225.000107
v 630 1.195345 180.000061
v 585.000244 0.015713 180.000061
v 675 6.918429 225.000107
v 720.000244 6.557418 225.000107
v 675 4.436911 180.000061
v 720.000244 3.38627 180.000061
v 765 0.380274 225.000107
v 810.000122 8.167191 225.000107
v 765 2.726861 180.000061
v 810.000122 7.440288 180.000061
v 855 9.4703 225.000107
v 900 12.31979 225.000107
v 855 10.415535 180.000061
v 900 -0.5315 180.000061
v 0 5.308854 135.000076
v 45 1.211419 135.000076
v 89.999893 4.304109 135.000076
v 45 1.197144 90.000031
v 89.999893 4.608892 90.000031
v 0 12.319784 90.000031
v 135.000107 7.206406 135.000076
v 180.000107 2.417646 135.000076
v 180.000107 0.397059 90.000031
v 135.000107 10.956259 90.000031
v 225 5.772629 135.000076
v 270 8.280145 135.000076
v 225 7.238785 90.000031
v 270 1.192884 90.000031
v 315.000122 6.997205 135.000076
v 360.000244 2.910182 135.000076
v 315.000122 1.006622 90.000031
v 360.000244 9.660719 90.000031
v 405 3.753225 135.000076
v 450 6.4085 135.000076
v 405 10.247184 90.000031
v 450 10.270599 90.000031
v 495.000244 10.712416 135.000076
v 540 4.763425 135.000076
v 495.000244 0.772637 90.000031
v 540 4.051327 90.000031
v 585.000244 5.16009 135.000076
v 630 4.186796 135.000076
v 630 5.988608 90.000031
v 585.000244 9.855931 90.000031
v 675 1.826609 135.000076
v 720.000244 4.016432 135.000076
v 675 6.134235 90.000031
v 720.000244 6.005731 90.000031
v 765 6.002613 135.000076
v 810.000122 5.242479 135.000076
v 765 3.923337 90.000031
v 810.000122 8.35695 90.000031
v 855 10.968683 135.000076
v 900 5.308855 135.000076
v 900 12.319788 90.000031
v 855 7.910737 90.000031
v 0 -0.531497 45.000008
v 45 5.202323 45.000008
v 89.999893 1.789262 45.000008
v 89.999893 5.308851 0
v 45 5.308854 0
v 0 5.308855 0
v 135.000107 10.233377 45.000008
v 180.000107 11.267969 45.000008
v 135.000107 0.408258 0
v 180.000107 0.408258 0
v 225 4.426051 45.000008
v 270 2.680178 45.000008
v 270 5.308855 0
v 225 5.308854 0
v 315.000122 2.321706 45.000008
v 360.000244 8.849975 45.000008
v 360.000244 5.308856 0
v 315.000122 -0.676853 0
v 405 6.757133 45.000008
v 450 2.52254 45.000008
v 405 0.408257 0
v 450 0.408259 0
v 495.000244 9.280101 45.000008
v 540 3.921686 45.000008
v 495.000244 5.308853 0
v 540 -0.683657 0
v 585.000244 5.513119 45.000008
v 630 3.092679 45.000008
v 630 -0.676852 0
v 585.000244 5.308854 0
v 675 7.51501 45.000008
v 720.000244 5.684739 45.000008
v 720.000244 5.308855 0
v 675 5.308854 0
v 765 4.79515 45.000008
v 810.000122 11.123394 45.000008
v 810.000122 -0.676853 0
v 765 -0.676856 0
v 855 8.591917 45.000008
v 900 -0.531499 45.000008
v 855 5.308854 0
v 900 5.308854 0
vt 0.940874 0.983109
vt 0.940764 0.934457
vt 0.989562 0.982912
vt 0.98942 0.934225
vt 0.892166 0.983187
vt 0.89195 0.934481
vt 0.89153 0.885864
vt 0.940459 0.88609
vt 0.989181 0.885504
vt 0.843339 0.983669
vt 0.842796 0.934958
vt 0.794798 0.984429
vt 0.793777 0.935156
vt 0.793492 0.886682
vt 0.842472 0.886097
vt 0.745681 0.984322
vt 0.744711 0.935484
vt 0.69698 0.985055
vt 0.696189 0.936101
vt 0.744453 0.886884
vt 0.695508 0.887132
vt 0.647982 0.985217
vt 0.646991 0.935746
vt 0.598934 0.984956
vt 0.598345 0.936246
vt 0.646634 0.886882
vt 0.597914 0.887381
vt 0.549969 0.985785
vt 0.549353 0.936258
vt 0.501269 0.986142
vt 0.500643 0.936995
vt 0.500309 0.888148
vt 0.548841 0.88827
vt 0.452383 0.986042
vt 0.451747 0.937337
vt 0.403395 0.986567
vt 0.403086 0.937906
vt 0.402722 0.889324
vt 0.451801 0.888297
vt 0.35457 0.986995
vt 0.35433 0.938179
vt 0.305766 0.986997
vt 0.305461 0.938002
vt 0.354137 0.889389
vt 0.305027 0.889127
vt 0.256878 0.986775
vt 0.256712 0.938087
vt 0.208406 0.987074
vt 0.208086 0.938429
vt 0.256353 0.889375
vt 0.207573 0.889837
vt 0.159479 0.987745
vt 0.159265 0.938901
vt 0.110971 0.988142
vt 0.110272 0.938392
vt 0.1586 0.889478
vt 0.109897 0.88972
vt 0.061849 0.987497
vt 0.061144 0.93887
vt 0.013189 0.98809
vt 0.012523 0.939431
vt 0.060807 0.890372
vt 0.012291 0.890732
vt 0.988927 0.836089
vt 0.940092 0.836755
vt 0.890929 0.83702
vt 0.938902 0.787784
vt 0.890308 0.788068
vt 0.988242 0.787525
vt 0.84208 0.837007
vt 0.793082 0.837975
vt 0.793079 0.788758
vt 0.84169 0.788229
vt 0.744295 0.838339
vt 0.695573 0.838364
vt 0.744114 0.790035
vt 0.694757 0.788874
vt 0.646405 0.837806
vt 0.597332 0.838766
vt 0.597572 0.789261
vt 0.646161 0.788933
vt 0.548911 0.838729
vt 0.500418 0.839119
vt 0.5486 0.789901
vt 0.499817 0.790186
vt 0.451696 0.839507
vt 0.402911 0.839773
vt 0.451037 0.790577
vt 0.402211 0.791094
vt 0.353975 0.840528
vt 0.30506 0.840431
vt 0.353648 0.791862
vt 0.304382 0.7915
vt 0.256212 0.840671
vt 0.207429 0.840932
vt 0.255814 0.791969
vt 0.206814 0.791817
vt 0.158421 0.840646
vt 0.109505 0.841117
vt 0.157701 0.791936
vt 0.108871 0.792313
vt 0.060652 0.84146
vt 0.011819 0.841791
vt 0.01118 0.793474
vt 0.060078 0.792618
vt 0.938774 0.739156
vt 0.987458 0.738483
vt 0.890054 0.739216
vt 0.889783 0.690595
vt 0.938545 0.69011
vt 0.987093 0.689662
vt 0.841204 0.739496
vt 0.792625 0.739937
vt 0.840859 0.690818
vt 0.791943 0.691045
vt 0.743805 0.740523
vt 0.694356 0.739747
vt 0.742667 0.691019
vt 0.694073 0.691159
vt 0.645688 0.740225
vt 0.596912 0.740657
vt 0.644898 0.691436
vt 0.596332 0.691861
vt 0.548196 0.741204
vt 0.499435 0.741492
vt 0.54768 0.692296
vt 0.498995 0.692752
vt 0.450738 0.74199
vt 0.401933 0.742305
vt 0.450438 0.693547
vt 0.40144 0.69324
vt 0.353068 0.742659
vt 0.304138 0.742759
vt 0.304263 0.694061
vt 0.353047 0.693591
vt 0.25523 0.742731
vt 0.20582 0.742908
vt 0.205695 0.694622
vt 0.254892 0.693876
vt 0.157068 0.743188
vt 0.108344 0.743518
vt 0.107691 0.695182
vt 0.156817 0.69414
vt 0.059147 0.7437
vt 0.010726 0.744382
vt 0.058773 0.694997
vt 0.009903 0.69531
vt 0.937888 0.641299
vt 0.98654 0.640852
vt 0.889035 0.641598
vt 0.937546 0.592506
vt 0.888675 0.592312
vt 0.986237 0.59247
vt 0.840373 0.641989
vt 0.791805 0.642171
vt 0.791401 0.593034
vt 0.840146 0.592681
vt 0.743217 0.642224
vt 0.694006 0.642531
vt 0.742496 0.593642
vt 0.693679 0.593955
vt 0.644937 0.642725
vt 0.596106 0.643009
vt 0.644435 0.593973
vt 0.595676 0.594168
vt 0.547295 0.643603
vt 0.498312 0.64382
vt 0.498233 0.594937
vt 0.547018 0.594487
vt 0.449606 0.644232
vt 0.401059 0.644487
vt 0.400602 0.595653
vt 0.449412 0.595025
vt 0.35215 0.644524
vt 0.302625 0.644747
vt 0.302416 0.596416
vt 0.351802 0.595783
vt 0.254127 0.645211
vt 0.205422 0.645566
vt 0.253867 0.596527
vt 0.204855 0.596763
vt 0.15649 0.645586
vt 0.107611 0.64607
vt 0.107552 0.597234
vt 0.156284 0.59694
vt 0.058922 0.646267
vt 0.010288 0.646309
vt 0.058824 0.597467
vt 0.010136 0.597981
vt 0.98634 0.543537
vt 0.93763 0.543704
vt 0.888685 0.543806
vt 0.937149 0.494865
vt 0.888493 0.495159
vt 0.985735 0.49448
vt 0.840049 0.5441
vt 0.791121 0.543889
vt 0.79063 0.495502
vt 0.839944 0.495629
vt 0.741771 0.545184
vt 0.692943 0.544969
vt 0.74171 0.495967
vt 0.692791 0.496288
vt 0.644155 0.545096
vt 0.595496 0.545401
vt 0.595113 0.496409
vt 0.643701 0.496075
vt 0.546559 0.545542
vt 0.497743 0.546191
vt 0.496989 0.497622
vt 0.545795 0.496241
vt 0.44888 0.54655
vt 0.400179 0.546888
vt 0.448249 0.497224
vt 0.399733 0.497478
vt 0.351566 0.546918
vt 0.303084 0.547357
vt 0.302301 0.498405
vt 0.35106 0.498034
vt 0.253842 0.547649
vt 0.204987 0.547975
vt 0.253532 0.498864
vt 0.204906 0.49928
vt 0.156187 0.548155
vt 0.107554 0.548269
vt 0.155995 0.499495
vt 0.106946 0.499359
vt 0.058683 0.548677
vt 0.009497 0.549113
vt 0.009731 0.500192
vt 0.058278 0.499985
vt 0.936846 0.44606
vt 0.98579 0.445658
vt 0.888004 0.446253
vt 0.936457 0.397305
vt 0.887421 0.397408
vt 0.985044 0.396797
vt 0.839382 0.446823
vt 0.790477 0.446542
vt 0.838517 0.397883
vt 0.79004 0.397998
vt 0.741534 0.447193
vt 0.692808 0.447465
vt 0.741303 0.398459
vt 0.692152 0.398326
vt 0.644015 0.44692
vt 0.594703 0.447466
vt 0.642926 0.398154
vt 0.594262 0.39866
vt 0.545349 0.447986
vt 0.496711 0.448401
vt 0.545496 0.398952
vt 0.497038 0.399084
vt 0.447937 0.448548
vt 0.39935 0.448826
vt 0.447809 0.399751
vt 0.399213 0.4003
vt 0.350539 0.44911
vt 0.301836 0.449622
vt 0.350222 0.400453
vt 0.301572 0.40081
vt 0.253052 0.450029
vt 0.204452 0.450556
vt 0.204141 0.401977
vt 0.252991 0.400979
vt 0.155926 0.450931
vt 0.106488 0.450462
vt 0.154819 0.401566
vt 0.10564 0.40102
vt 0.057832 0.450816
vt 0.007982 0.451299
vt 0.008722 0.402358
vt 0.057296 0.401787
vt 0.984473 0.348153
vt 0.935785 0.348311
vt 0.887022 0.348673
vt 0.886887 0.299836
vt 0.935744 0.2995
vt 0.984918 0.299191
vt 0.838422 0.34883
vt 0.789542 0.349206
vt 0.837724 0.299569
vt 0.788991 0.299921
vt 0.740363 0.348938
vt 0.690995 0.349159
vt 0.69108 0.300434
vt 0.740068 0.300399
vt 0.642546 0.349536
vt 0.593747 0.349901
vt 0.642246 0.300711
vt 0.593602 0.301536
vt 0.544893 0.3501
vt 0.496108 0.350406
vt 0.495667 0.301728
vt 0.544444 0.301169
vt 0.447263 0.350745
vt 0.39826 0.351156
vt 0.398518 0.301928
vt 0.447169 0.301881
vt 0.349674 0.351628
vt 0.301072 0.352034
vt 0.349315 0.302787
vt 0.300291 0.303027
vt 0.252284 0.352279
vt 0.203519 0.352793
vt 0.251774 0.303506
vt 0.203002 0.303754
vt 0.15446 0.35251
vt 0.105631 0.352651
vt 0.154275 0.303777
vt 0.104827 0.303486
vt 0.056752 0.353139
vt 0.008144 0.353719
vt 0.056237 0.30455
vt 0.007088 0.304547
vt 0.935366 0.250404
vt 0.984981 0.250599
vt 0.886819 0.251228
vt 0.886396 0.201906
vt 0.935505 0.20164
vt 0.98454 0.200616
vt 0.837843 0.251
vt 0.788698 0.250535
vt 0.836993 0.201691
vt 0.788122 0.201976
vt 0.739836 0.251978
vt 0.690399 0.251526
vt 0.739183 0.202736
vt 0.690231 0.202665
vt 0.641815 0.251997
vt 0.592969 0.25225
vt 0.592711 0.203496
vt 0.641797 0.203093
vt 0.543958 0.252548
vt 0.495303 0.252979
vt 0.495212 0.203924
vt 0.544035 0.203884
vt 0.446779 0.253
vt 0.398105 0.253624
vt 0.397497 0.204545
vt 0.446344 0.204203
vt 0.349015 0.253869
vt 0.300259 0.254269
vt 0.299935 0.205193
vt 0.348343 0.204799
vt 0.251617 0.254649
vt 0.203054 0.254913
vt 0.251215 0.205807
vt 0.202396 0.20611
vt 0.154077 0.255149
vt 0.104734 0.255099
vt 0.153588 0.206404
vt 0.104421 0.206441
vt 0.055937 0.255486
vt 0.007249 0.256044
vt 0.05538 0.206709
vt 0.005208 0.206235
vt 0.983357 0.152328
vt 0.934521 0.152585
vt 0.885705 0.152825
vt 0.93427 0.10363
vt 0.885323 0.103924
vt 0.984419 0.103864
vt 0.836769 0.153086
vt 0.787556 0.153516
vt 0.786925 0.105502
vt 0.83631 0.104246
vt 0.738739 0.153907
vt 0.68992 0.153999
vt 0.738233 0.105058
vt 0.689248 0.104874
vt 0.641165 0.154345
vt 0.592346 0.15431
vt 0.640725 0.105219
vt 0.591431 0.105257
vt 0.54367 0.154894
vt 0.494996 0.155342
vt 0.54297 0.105842
vt 0.49453 0.106514
vt 0.446264 0.155467
vt 0.397194 0.155655
vt 0.44505 0.106023
vt 0.396466 0.106752
vt 0.348328 0.156035
vt 0.299445 0.156527
vt 0.299008 0.107802
vt 0.347645 0.107272
vt 0.250689 0.157115
vt 0.201939 0.157403
vt 0.250271 0.108325
vt 0.20155 0.108683
vt 0.153143 0.157629
vt 0.104462 0.157752
vt 0.152834 0.108862
vt 0.103958 0.109046
vt 0.055415 0.157846
vt 0.006341 0.15784
vt 0.006714 0.109165
vt 0.055429 0.109006
vt 0.98219 0.054012
vt 0.933358 0.054593
vt 0.884714 0.05494
vt 0.884597 0.006144
vt 0.932933 0.005924
vt 0.9813 0.005208
vt 0.835521 0.055915
vt 0.786971 0.056058
vt 0.835838 0.006299
vt 0.786988 0.006077
vt 0.737806 0.05619
vt 0.689091 0.056278
vt 0.689113 0.007604
vt 0.737871 0.007515
vt 0.640385 0.056372
vt 0.591185 0.056836
vt 0.59099 0.008203
vt 0.64006 0.007591
vt 0.542493 0.057076
vt 0.493589 0.057079
vt 0.541953 0.008015
vt 0.493332 0.008346
vt 0.444644 0.057053
vt 0.395934 0.057878
vt 0.444381 0.008675
vt 0.395438 0.008988
vt 0.347273 0.058556
vt 0.298603 0.059004
vt 0.298011 0.010202
vt 0.34671 0.009894
vt 0.249828 0.059714
vt 0.201209 0.059988
vt 0.201024 0.011371
vt 0.249319 0.01106
vt 0.15255 0.060097
vt 0.103665 0.060661
vt 0.104089 0.010737
vt 0.152382 0.011038
vt 0.055158 0.06025
vt 0.005442 0.058924
vt 0.055296 0.011351
vt 0.006741 0.009959
vn -0 0.999294 -0.037581
vn -0 0.999294 -0.037581
vn -0 0.999294 -0.037581
vn 0.037581 0.999294 0
vn 0 0.999294 -0.037581
vn -0.140858 0.98457 0.10383
vn -0.14129 0.987584 -0.068664
vn -0.129934 0.989875 -0.057141
vn 0.037581 0.999294 -0
vn 0.108222 0.993762 0.026945
vn 0.108222 0.993762 0.026945
vn 0 0.999633 0.027104
vn -0.152766 0.971895 0.179117
vn -0.155143 0.987018 -0.041556
vn -0.088238 0.995751 0.026353
vn -0.106489 0.977846 0.180214
vn 0.163213 0.982556 -0.089132
vn 0 0.995911 -0.090343
vn 0.009704 0.994944 -0.099959
vn 0.00975 0.999647 0.024694
vn -0.083211 0.989603 0.117309
vn 0.131205 0.98639 -0.0991
vn -0.154489 0.970315 0.18607
vn -0.129535 0.973831 0.186744
vn 0.068262 0.997621 -0.009654
vn 0.068062 0.994706 -0.076992
vn 0.018605 0.999447 -0.027577
vn 0.108258 0.994076 -0.00962
vn -0.135118 0.963591 0.230728
vn 0 0.990518 0.137385
vn 0 0.990518 0.137385
vn 0.100211 0.994675 0.024057
vn 0.079778 0.996807 0.003461
vn -0.107247 0.984805 0.136592
vn 0.109829 0.990701 -0.080308
vn 0.131749 0.989352 0.061843
vn 0.131749 0.989352 0.061843
vn -0.010399 0.999441 -0.031768
vn 0.142161 0.982401 0.121156
vn -0.131649 0.988606 -0.072984
vn -0.131649 0.988606 -0.072984
vn 0.131503 0.988625 -0.072986
vn -0.071024 0.989024 0.129563
vn -0.071601 0.997056 0.027434
vn -0.144924 0.984241 0.101325
vn -0.131729 0.990327 0.043593
vn -0.131729 0.990327 0.043593
vn 0 0.999033 0.043977
vn 0.003785 0.999185 0.040199
vn 0.003786 0.999407 0.034235
vn 0.060391 0.997923 -0.022427
vn 0.13175 0.990482 0.039849
vn 0.084995 0.992579 0.086967
vn -0 0.996184 0.087283
vn -0.130466 0.967802 0.215262
vn -0.131753 0.977355 0.165582
vn 0.008661 0.999626 0.025938
vn -0.128762 0.968019 0.21531
vn 0.166779 0.982832 -0.078904
vn 0 1 0
vn 0 1 0
vn -0.079929 0.995586 0.049196
vn -0.030854 0.999524 0
vn 0.093781 0.983725 0.153263
vn 0.048363 0.979105 0.197522
vn 0.136901 0.988299 -0.067253
vn 0.135881 0.980931 -0.13896
vn -0.083522 0.993257 0.080404
vn 0.049335 0.998782 0
vn -0.109408 0.985157 0.132269
vn -0.087865 0.991532 -0.095623
vn 0.139839 0.98419 0.1087
vn -0.036793 0.996984 -0.068336
vn 0.054318 0.997197 -0.05146
vn -0.083349 0.991234 -0.102512
vn -0.032256 0.999478 0.001668
vn -0.201822 0.964145 0.172316
vn -0.150572 0.984948 0.084886
vn 0.018594 0.998847 -0.044267
vn 0.144112 0.966441 0.212658
vn -0.100193 0.994526 -0.029655
vn -0.164057 0.957781 -0.236095
vn -0.038381 0.991208 -0.126624
vn -0.038481 0.993798 0.104326
vn -0.053999 0.991343 0.119682
vn 0.011715 0.999675 -0.022635
vn 0.140212 0.96893 0.203753
vn -0.087429 0.991007 0.101294
vn 0.088013 0.993358 -0.074113
vn -0.055927 0.99635 0.064494
vn -0.005734 0.99705 -0.076537
vn -0.005723 0.995117 -0.098535
vn -0.19335 0.976901 0.091
vn 0.022651 0.999688 0.010544
vn 0.060011 0.991653 0.114119
vn -0.043967 0.998909 0.015727
vn 0.114286 0.983235 -0.142084
vn 0.113815 0.987927 -0.105103
vn 0.008664 0.999957 0.003443
vn -0.100354 0.991976 0.076893
vn 0.063666 0.994156 -0.087178
vn 0.143757 0.983127 0.113117
vn -0.070579 0.985616 0.153558
vn -0.071426 0.997446 0
vn -0.108617 0.993377 -0.037482
vn 0.187355 0.98063 0.05713
vn -0.022721 0.987825 -0.153902
vn 0.06468 0.993807 -0.090351
vn 0.064943 0.997843 0.00953
vn -0.081793 0.987241 -0.136617
vn -0.022804 0.991425 -0.128672
vn -0.132771 0.987837 0.080933
vn -0.036849 0.998488 -0.040795
vn 0.085414 0.994555 -0.059708
vn -0.02079 0.998697 0.046603
vn 0.156826 0.960659 0.229216
vn 0.177835 0.972659 -0.149361
vn 0.175413 0.959413 -0.220809
vn -0.036263 0.999282 -0.011019
vn -0.060338 0.997481 -0.037305
vn -0.099927 0.991886 -0.07859
vn -0.05855 0.993866 0.093816
vn -0.001863 0.999302 0.037322
vn 0.028694 0.998867 0.03796
vn -0.046693 0.998451 0.030251
vn -0.046458 0.993416 0.10472
vn 0.06399 0.997936 -0.005462
vn -0.029905 0.999445 -0.014644
vn 0.088036 0.993615 0.070555
vn 0.00294 0.999861 0.016386
vn 0.143825 0.981696 -0.124849
vn 0.111147 0.976398 0.185183
vn 0.066375 0.995002 -0.074596
vn 0.066514 0.997081 0.037495
vn -0.121778 0.981107 -0.15033
vn 0.095424 0.983044 -0.156584
vn -0.183612 0.972727 0.141738
vn -0.185439 0.982402 -0.022341
vn -0.204914 0.977854 -0.042571
vn 0.085094 0.995293 -0.046383
vn -0.088723 0.990401 0.105995
vn -0.089226 0.996011 -0.001318
vn -0.211605 0.969191 -0.126064
vn 0.18897 0.976938 -0.099411
vn -0.107413 0.982363 -0.153051
vn -0.055199 0.998182 0.024217
vn 0.097459 0.986962 -0.128093
vn -0.01433 0.994912 0.099723
vn 0.015021 0.991571 0.128692
vn -0.105731 0.986773 0.122884
vn -0.106459 0.993572 0.038493
vn 0.116278 0.976202 -0.183056
vn 0.015147 0.999885 0
vn -0.020887 0.996545 0.080391
vn 0.020709 0.999021 0.039084
vn 0.020583 0.992925 -0.116949
vn -0.030788 0.985428 -0.167281
vn 0.156665 0.975479 0.154588
vn -0.036262 0.99923 -0.014994
vn 0.135391 0.986892 -0.087828
vn 0.033361 0.999334 0.014802
vn -0.163302 0.984267 -0.067465
vn -0.001863 0.999341 -0.036239
vn -0.034053 0.997333 0.064556
vn 0.054115 0.998256 -0.023584
vn -0.0393 0.998978 -0.022342
vn 0.110395 0.99149 -0.068993
vn 0.110489 0.992335 0.055342
vn -0.130839 0.973996 -0.184967
vn 0.074256 0.978384 -0.193003
vn -0.057773 0.998305 0.007098
vn -0.057665 0.996435 0.061584
vn 0.065892 0.980851 0.183275
vn -0.124805 0.980377 0.152591
vn 0.208386 0.9617 -0.178069
vn 0.211672 0.976865 0.030498
vn 0.167512 0.985751 -0.01531
vn 0.007783 0.999861 -0.014733
vn -0.202748 0.967516 -0.151017
vn -0.068045 0.997682 -0.000861
vn -0.145487 0.986331 0.077366
vn -0.041334 0.996101 0.077931
vn -0.210943 0.966155 -0.148486
vn 0.013575 0.998868 0.045593
vn 0.010192 0.999057 0.042215
vn 0.03037 0.999407 -0.01622
vn 0.09746 0.986962 0.128094
vn -0.047117 0.996814 0.064359
vn 0.017295 0.99985 -0
vn -0.023305 0.987812 0.1539
vn 0.079059 0.995484 0.052549
vn 0.118147 0.991898 0.046679
vn 0.123545 0.989632 -0.07325
vn 0.055364 0.998456 -0.004621
vn 0.07823 0.985052 -0.153469
vn -0.018954 0.999448 0.027287
vn -0.154424 0.976463 0.150576
vn -0.156201 0.987696 -0.007601
vn -0.165014 0.986151 -0.016647
vn 0.012442 0.998243 -0.057926
vn -0.117346 0.988729 0.092978
vn -0.116133 0.978508 0.170394
vn 0.093107 0.994933 -0.037935
vn 0.033269 0.994316 -0.101135
vn -0.009719 0.99924 -0.037748
vn -0.009672 0.99442 0.105053
vn 0.021167 0.990559 0.135446
vn 0.110766 0.979858 0.166162
vn 0.029061 0.999559 0.006169
vn 0.029062 0.999568 -0.004392
vn -0.165262 0.966252 -0.1976
vn -0.06033 0.998113 0.011409
vn 0.066944 0.996519 0.049674
vn 0.028341 0.98536 -0.168114
vn 0.050314 0.980608 -0.189413
vn 0.033933 0.998844 -0.034053
vn 0.164302 0.966866 0.195382
vn -0.065094 0.982713 -0.173315
vn 0.026128 0.996159 -0.083574
vn 0.03975 0.99706 0.065503
vn -0.145476 0.986252 -0.078383
vn -0.002326 0.997196 0.074801
vn -0.003226 0.997126 0.075695
vn 0.016186 0.994802 -0.100534
vn 0.037116 0.991186 -0.127173
vn 0.037417 0.999227 -0.012029
vn -0.090437 0.989174 0.115571
vn 0.011466 0.999896 -0.008744
vn 0.017088 0.987936 0.153919
vn -0.143976 0.977785 -0.152338
vn -0.073841 0.993865 -0.082341
vn -0.002363 0.99958 -0.028877
vn -0.101869 0.986524 -0.128037
vn -0.072772 0.99241 0.099131
vn -0.073077 0.996577 -0.038647
vn -0.146697 0.988531 0.035875
vn -0.101869 0.986524 0.128037
vn -0.036637 0.990971 0.128973
vn 0.115534 0.9816 -0.152033
vn 0.115411 0.980551 -0.158743
vn -0.075824 0.996615 0.031781
vn 0.042801 0.998496 0.034255
vn 0.09299 0.993683 0.062823
vn 0.064524 0.997811 0.014513
vn 0.170563 0.980962 -0.09286
vn 0.13015 0.969863 -0.205978
vn 0.021359 0.99955 0.02106
vn -0.205077 0.966985 0.151272
vn -0.014643 0.999054 -0.040947
vn 0.210799 0.976676 0.040838
vn -0.166736 0.97487 -0.147741
vn 0.022098 0.989676 0.141611
vn -0.049516 0.976231 0.211001
vn -0.087725 0.995252 0.042166
vn 0.051078 0.995482 0.080045
vn 0.013242 0.998028 -0.061364
vn 0.005186 0.998563 -0.053334
vn -0.112905 0.98658 0.117954
vn 0.026174 0.997892 0.059388
vn 0.085786 0.994342 -0.062648
vn -0.00464 0.9996 0.027901
vn 0.087224 0.990881 -0.102694
vn -0.003219 0.995279 -0.096999
vn -0.009407 0.999231 -0.038073
vn 0.150991 0.980871 0.122853
vn 0.009912 0.999946 -0.003149
vn -0.17771 0.980406 0.084987
vn -0.175054 0.965758 0.191488
vn 0.204677 0.960541 -0.188333
vn 0.089971 0.982276 0.164436
vn 0.215827 0.96831 -0.125673
vn 0.215828 0.96831 0.125673
vn -0.033703 0.991456 -0.126013
vn 0.065166 0.997874 0
vn -0.046517 0.992693 0.111345
vn -0.089351 0.994572 0.053312
vn -0.0891 0.991779 -0.091847
vn -0.022727 0.999417 -0.025495
vn 0.13169 0.979475 0.152601
vn 0.156472 0.970604 0.182879
vn 0.038372 0.996551 0.073577
vn 0.037782 0.981236 -0.189072
vn -0.014858 0.990344 -0.137836
vn 0.130035 0.974331 -0.183768
vn -0.19089 0.965584 0.17666
vn -0.192574 0.974106 -0.118458
vn -0.064357 0.99786 0.011567
vn 0.01963 0.998733 0.046339
vn 0.113905 0.990062 -0.08248
vn 0.114072 0.991518 -0.06229
vn 0.140778 0.986007 -0.089284
vn -0.006177 0.997803 -0.065957
vn -0.050184 0.989387 -0.136365
vn 0.020996 0.999702 0.012467
vn 0.129288 0.98421 0.120891
vn -0.020957 0.997151 0.072463
vn -0.110167 0.976319 0.186186
vn -0.109807 0.973131 -0.202384
vn 0.099379 0.995038 0.004717
vn 0.057426 0.99795 0.028252
vn -0.027024 0.998351 0.050653
vn -0.027055 0.999499 0.016416
vn 0.168629 0.9693 -0.178946
vn 0.06613 0.997503 -0.024806
vn 0.150601 0.978339 0.142028
vn -0.016096 0.999482 -0.027865
vn 0.048236 0.994592 -0.091982
vn 0.075549 0.984924 -0.155619
vn 0.040655 0.99907 0.014379
vn 0.040573 0.99706 -0.064998
vn -0.213227 0.958399 0.18975
vn -0.095284 0.994099 0.051839
vn 0.01815 0.999835 0
vn 0.018148 0.999739 -0.013898
vn -0.14809 0.977185 0.152244
vn 0.132626 0.986438 -0.096695
vn 0.226436 0.974026 0
vn -0.022725 0.999351 0.027948
vn -0.145156 0.975964 -0.162555
vn 0.072131 0.995912 0.054375
vn -0.103017 0.956441 -0.273144
vn 0.182013 0.982832 -0.030222
vn -0.200543 0.967137 0.156294
vn -0.200313 0.966027 0.163298
vn 0.034625 0.996744 -0.072817
vn -0.017278 0.99812 -0.058812
vn -0.235925 0.964719 0.116861
vn -0.233953 0.95666 0.173401
vn 0.084132 0.985624 -0.146517
vn -0.039099 0.999235 -0.000399
vn 0.138579 0.970599 0.196807
vn -0.060263 0.997883 -0.024463
vn -0.174689 0.974659 -0.139723
vn 0.101156 0.987877 -0.117755
vn 0.113796 0.988277 -0.101776
vn 0.112975 0.981149 0.156789
vn 0.068356 0.991284 0.112623
vn -0.013278 0.999319 -0.034412
vn 0.091051 0.995509 -0.025906
vn 0.08993 0.98326 0.158469
vn -0.036317 0.998785 0.033305
vn -0.164458 0.985656 -0.037905
vn 0.169522 0.974435 0.147437
vn -0.015621 0.989105 -0.146383
vn -0.025883 0.987353 -0.156412
vn 0.020794 0.998983 0.04001
vn 0.048285 0.995611 0.080173
vn 0.00801 0.998451 -0.055059
vn 0.023283 0.997256 -0.070276
vn 0.049351 0.998755 -0.007322
vn -0.21684 0.974638 -0.055332
vn -0.170283 0.984058 0.051315
vn -0.104159 0.994431 -0.016063
vn 0.114826 0.989542 0.087303
vn -0.149836 0.988711 0
vn -0.063182 0.997782 0.020959
vn 0.227767 0.936283 -0.267387
vn -0.106209 0.986074 0.127978
vn 0.090466 0.993539 -0.068532
vn -0.068388 0.99507 0.07182
vn -0.068565 0.997647 -0.000316
vn -0.075598 0.997115 0.006753
vn 0.089607 0.984105 0.153322
vn -0.064355 0.997833 -0.013705
vn 0.10544 0.990818 -0.084629
vn 0.105714 0.993396 -0.044605
vn 0.227696 0.970369 0.080861
vn -0.050932 0.996791 -0.061756
vn -0.055463 0.99535 0.078759
vn -0.055607 0.997923 0.032514
vn 0.131564 0.979237 -0.154225
vn 0.076263 0.989053 0.126326
vn 0.089555 0.986044 -0.140344
vn 0.089665 0.987262 -0.131428
vn -0.186836 0.971521 0.14574
vn -0.035265 0.98693 -0.157245
vn -0.058875 0.997775 -0.031295
vn -0.058302 0.988064 0.142587
vn -0.000518 0.996337 0.08551
vn -0.094653 0.989659 0.107774
vn -0.036273 0.997568 -0.059515
vn 0.128027 0.968427 -0.21391
vn -0.072658 0.997232 -0.015781
vn 0.16193 0.980417 0.112081
vn 0.021576 0.997565 0.066315
vn 0.021607 0.998966 0.039999
vn 0.085166 0.990986 0.103411
vn 0.052289 0.996956 -0.05783
vn -0.0486 0.99872 0.013986
vn -0.048384 0.994284 0.095178
vn 0.002853 0.99902 0.044163
vn -0.043978 0.996396 0.072532
vn 0.016869 0.998667 -0.048775
vn 0.016871 0.998792 -0.04615
vn -0.097818 0.992829 0.068714
vn -0.065968 0.997746 0.012264
vn 0.123769 0.984058 0.127717
vn 0.123326 0.980537 0.152766
vn -0.09729 0.992966 -0.067476
vn 0.231227 0.935499 -0.267163
vn -0.125906 0.988136 0.087948
vn 0.075482 0.995196 -0.062357
vn 0.0754 0.994117 0.077753
vn 0 0.999997 0.002367
vn -0.125362 0.983859 0.127691
vn -0.139652 0.990073 -0.015905
vn 0.222377 0.9477 0.228941
vn -0.022456 0.976738 -0.213257
vn -0 0.972094 -0.234592
vn 0.150029 0.986756 -0.061677
vn 0.038747 0.998704 0.033008
vn 0.038702 0.99755 0.058272
vn -0 0.999808 0.019614
vn 0.007962 0.999542 0.029211
vn -0.143546 0.989483 -0.017827
vn -0.143136 0.986653 -0.077641
vn -0.131567 0.989114 -0.065909
vn 0.046319 0.995936 -0.077241
vn 0.092341 0.981288 -0.168957
vn 0.092777 0.985923 -0.1391
vn -0 0.998898 -0.046932
vn -0.145973 0.972069 0.183774
vn -0.072667 0.997352 -0.002873
vn 0.11779 0.989194 -0.087296
vn 0.131328 0.986188 -0.100927
vn -0.127349 0.987271 -0.095279
vn 0.0536 0.996501 -0.064129
vn 0.053523 0.995081 -0.083355
vn 0.131854 0.991259 -0.0045
vn -0.003235 0.999524 0.030669
vn 0.040638 0.999149 -0.007127
vn 0.040637 0.999139 -0.008346
vn -0 0.9988 -0.048967
vn 0.019761 0.999617 0.019366
vn -0.139 0.988426 0.060765
vn -0.134787 0.958469 -0.251337
vn -0 0.992688 -0.120711
vn 0.009914 0.999836 0.015135
vn 0.191346 0.94379 -0.269531
vn 0.198194 0.977565 -0.07132
vn 0 0.991683 0.128706
f 1/1/1 2/2/2 3/3/3
f 3/3/3 2/2/2 4/4/4
f 1/1/1 5/5/5 2/2/2
f 2/2/2 5/5/5 6/6/6
f 6/6/6 7/7/7 2/2/2
f 2/2/2 7/7/7 8/8/8
f 4/4/4 2/2/2 9/9/9
f 9/9/9 2/2/2 8/8/8
f 10/10/10 11/11/11 5/5/5
f 5/5/5 11/11/11 6/6/6
f 10/10/10 12/12/12 11/11/11
f 11/11/11 12/12/12 13/13/13
f 13/13/13 14/14/14 11/11/11
f 11/11/11 14/14/14 15/15/15
f 6/6/6 11/11/11 7/7/7
f 7/7/7 11/11/11 15/15/15
f 12/12/12 16/16/16 13/13/13
f 13/13/13 16/16/16 17/17/17
f 16/16/16 18/18/18 17/17/17
f 17/17/17 18/18/18 19/19/19
f 17/17/17 19/19/19 20/20/20
f 20/20/20 19/19/19 21/21/21
f 13/13/13 17/17/17 14/14/14
f 14/14/14 17/17/17 20/20/20
f 18/18/18 22/22/22 19/19/19
f 19/19/19 22/22/22 23/23/23
f 22/22/22 24/24/24 23/23/23
f 23/23/23 24/24/24 25/25/25
f 23/23/23 25/25/25 26/26/26
f 26/26/26 25/25/25 27/27/27
f 19/19/19 23/23/23 21/21/21
f 21/21/21 23/23/23 26/26/26
f 24/24/24 28/28/28 25/25/25
f 25/25/25 28/28/28 29/29/29
f 30/30/30 31/31/31 28/28/28
f 28/28/28 31/31/31 29/29/29
f 31/31/31 32/32/32 29/29/29
f 29/29/29 32/32/32 33/33/33
f 29/29/29 33/33/33 25/25/25
f 25/25/25 33/33/33 27/27/27
f 30/30/30 34/34/34 31/31/31
f 31/31/31 34/34/34 35/35/35
f 36/36/36 37/37/37 34/34/34
f 34/34/34 37/37/37 35/35/35
f 37/37/37 38/38/38 35/35/35
f 35/35/35 38/38/38 39/39/39
f 35/35/35 39/39/39 31/31/31
f 31/31/31 39/39/39 32/32/32
f 40/40/40 41/41/41 36/36/36
f 36/36/36 41/41/41 37/37/37
f 40/40/40 42/42/42 41/41/41
f 41/41/41 42/42/42 43/43/43
f 41/41/41 43/43/43 44/44/44
f 44/44/44 43/43/43 45/45/45
f 37/37/37 41/41/41 38/38/38
f 38/38/38 41/41/41 44/44/44
f 46/46/46 47/47/47 42/42/42
f 42/42/42 47/47/47 43/43/43
f 46/46/46 48/48/48 47/47/47
f 47/47/47 48/48/48 49/49/49
f 47/47/47 49/49/49 50/50/50
f 50/50/50 49/49/49 51/51/51
f 43/43/43 47/47/47 45/45/45
f 45/45/45 47/47/47 50/50/50
f 48/48/48 52/52/52 49/49/49
f 49/49/49 52/52/52 53/53/53
f 52/52/52 54/54/54 53/53/53
f 53/53/53 54/54/54 55/55/55
f 53/53/53 55/55/55 56/56/56
f 56/56/56 55/55/55 57/57/57
f 49/49/49 53/53/53 51/51/51
f 51/51/51 53/53/53 56/56/56
f 54/54/54 58/58/58 55/55/55
f 55/55/55 58/58/58 59/59/59
f 60/60/60 61/61/61 58/58/58
f 58/58/58 61/61/61 59/59/59
f 59/59/59 61/61/61 62/62/62
f 62/62/62 61/61/61 63/63/63
f 59/59/59 62/62/62 55/55/55
f 55/55/55 62/62/62 57/57/57
f 9/9/9 8/8/8 64/64/64
f 64/64/64 8/8/8 65/65/65
f 8/8/8 7/7/7 65/65/65
f 65/65/65 7/7/7 66/66/66
f 65/65/65 66/66/66 67/67/67
f 67/67/67 66/66/66 68/68/68
f 64/64/64 65/65/65 69/69/69
f 69/69/69 65/65/65 67/67/67
f 7/7/7 15/15/15 66/66/66
f 66/66/66 15/15/15 70/70/70
f 14/14/14 71/71/71 15/15/15
f 15/15/15 71/71/71 70/70/70
f 71/71/71 72/72/72 70/70/70
f 70/70/70 72/72/72 73/73/73
f 66/66/66 70/70/70 68/68/68
f 68/68/68 70/70/70 73/73/73
f 14/14/14 20/20/20 71/71/71
f 71/71/71 20/20/20 74/74/74
f 21/21/21 75/75/75 20/20/20
f 20/20/20 75/75/75 74/74/74
f 74/74/74 75/75/75 76/76/76
f 76/76/76 75/75/75 77/77/77
f 74/74/74 76/76/76 71/71/71
f 71/71/71 76/76/76 72/72/72
f 21/21/21 26/26/26 75/75/75
f 75/75/75 26/26/26 78/78/78
f 27/27/27 79/79/79 26/26/26
f 26/26/26 79/79/79 78/78/78
f 79/79/79 80/80/80 78/78/78
f 78/78/78 80/80/80 81/81/81
f 75/75/75 78/78/78 77/77/77
f 77/77/77 78/78/78 81/81/81
f 33/33/33 82/82/82 27/27/27
f 27/27/27 82/82/82 79/79/79
f 33/33/33 32/32/32 82/82/82
f 82/82/82 32/32/32 83/83/83
f 82/82/82 83/83/83 84/84/84
f 84/84/84 83/83/83 85/85/85
f 82/82/82 84/84/84 79/79/79
f 79/79/79 84/84/84 80/80/80
f 39/39/39 86/86/86 32/32/32
f 32/32/32 86/86/86 83/83/83
f 38/38/38 87/87/87 39/39/39
f 39/39/39 87/87/87 86/86/86
f 86/86/86 87/87/87 88/88/88
f 88/88/88 87/87/87 89/89/89
f 83/83/83 86/86/86 85/85/85
f 85/85/85 86/86/86 88/88/88
f 44/44/44 90/90/90 38/38/38
f 38/38/38 90/90/90 87/87/87
f 44/44/44 45/45/45 90/90/90
f 90/90/90 45/45/45 91/91/91
f 90/90/90 91/91/91 92/92/92
f 92/92/92 91/91/91 93/93/93
f 87/87/87 90/90/90 89/89/89
f 89/89/89 90/90/90 92/92/92
f 50/50/50 94/94/94 45/45/45
f 45/45/45 94/94/94 91/91/91
f 51/51/51 95/95/95 50/50/50
f 50/50/50 95/95/95 94/94/94
f 94/94/94 95/95/95 96/96/96
f 96/96/96 95/95/95 97/97/97
f 91/91/91 94/94/94 93/93/93
f 93/93/93 94/94/94 96/96/96
f 51/51/51 56/56/56 95/95/95
f 95/95/95 56/56/56 98/98/98
f 57/57/57 99/99/99 56/56/56
f 56/56/56 99/99/99 98/98/98
f 98/98/98 99/99/99 100/100/100
f 100/100/100 99/99/99 101/101/101
f 95/95/95 98/98/98 97/97/97
f 97/97/97 98/98/98 100/100/100
f 62/62/62 102/102/102 57/57/57
f 57/57/57 102/102/102 99/99/99
f 62/62/62 63/63/63 102/102/102
f 102/102/102 63/63/63 103/103/103
f 103/103/103 104/104/104 102/102/102
f 102/102/102 104/104/104 105/105/105
f 99/99/99 102/102/102 101/101/101
f 101/101/101 102/102/102 105/105/105
f 67/67/67 106/106/106 69/69/69
f 69/69/69 106/106/106 107/107/107
f 67/67/67 68/68/68 106/106/106
f 106/106/106 68/68/68 108/108/108
f 108/108/108 109/109/109 106/106/106
f 106/106/106 109/109/109 110/110/110
f 107/107/107 106/106/106 111/111/111
f 111/111/111 106/106/106 110/110/110
f 68/68/68 73/73/73 108/108/108
f 108/108/108 73/73/73 112/112/112
f 72/72/72 113/113/113 73/73/73
f 73/73/73 113/113/113 112/112/112
f 112/112/112 113/113/113 114/114/114
f 114/114/114 113/113/113 115/115/115
f 112/112/112 114/114/114 108/108/108
f 108/108/108 114/114/114 109/109/109
f 76/76/76 116/116/116 72/72/72
f 72/72/72 116/116/116 113/113/113
f 76/76/76 77/77/77 116/116/116
f 116/116/116 77/77/77 117/117/117
f 116/116/116 117/117/117 118/118/118
f 118/118/118 117/117/117 119/119/119
f 113/113/113 116/116/116 115/115/115
f 115/115/115 116/116/116 118/118/118
f 77/77/77 81/81/81 117/117/117
f 117/117/117 81/81/81 120/120/120
f 80/80/80 121/121/121 81/81/81
f 81/81/81 121/121/121 120/120/120
f 120/120/120 121/121/121 122/122/122
f 122/122/122 121/121/121 123/123/123
f 117/117/117 120/120/120 119/119/119
f 119/119/119 120/120/120 122/122/122
f 80/80/80 84/84/84 121/121/121
f 121/121/121 84/84/84 124/124/124
f 84/84/84 85/85/85 124/124/124
f 124/124/124 85/85/85 125/125/125
f 124/124/124 125/125/125 126/126/126
f 126/126/126 125/125/125 127/127/127
f 121/121/121 124/124/124 123/123/123
f 123/123/123 124/124/124 126/126/126
f 85/85/85 88/88/88 125/125/125
f 125/125/125 88/88/88 128/128/128
f 89/89/89 129/129/129 88/88/88
f 88/88/88 129/129/129 128/128/128
f 128/128/128 129/129/129 130/130/130
f 130/130/130 129/129/129 131/131/131
f 125/125/125 128/128/128 127/127/127
f 127/127/127 128/128/128 130/130/130
f 92/92/92 132/132/132 89/89/89
f 89/89/89 132/132/132 129/129/129
f 92/92/92 93/93/93 132/132/132
f 132/132/132 93/93/93 133/133/133
f 133/133/133 134/134/134 132/132/132
f 132/132/132 134/134/134 135/135/135
f 129/129/129 132/132/132 131/131/131
f 131/131/131 132/132/132 135/135/135
f 93/93/93 96/96/96 133/133/133
f 133/133/133 96/96/96 136/136/136
f 96/96/96 97/97/97 136/136/136
f 136/136/136 97/97/97 137/137/137
f 137/137/137 138/138/138 136/136/136
f 136/136/136 138/138/138 139/139/139
f 133/133/133 136/136/136 134/134/134
f 134/134/134 136/136/136 139/139/139
f 97/97/97 100/100/100 137/137/137
f 137/137/137 100/100/100 140/140/140
f 100/100/100 101/101/101 140/140/140
f 140/140/140 101/101/101 141/141/141
f 141/141/141 142/142/142 140/140/140
f 140/140/140 142/142/142 143/143/143
f 137/137/137 140/140/140 138/138/138
f 138/138/138 140/140/140 143/143/143
f 101/101/101 105/105/105 141/141/141
f 141/141/141 105/105/105 144/144/144
f 104/104/104 145/145/145 105/105/105
f 105/105/105 145/145/145 144/144/144
f 144/144/144 145/145/145 146/146/146
f 146/146/146 145/145/145 147/147/147
f 144/144/144 146/146/146 141/141/141
f 141/141/141 146/146/146 142/142/142
f 110/110/110 148/148/148 111/111/111
f 111/111/111 148/148/148 149/149/149
f 110/110/110 109/109/109 148/148/148
f 148/148/148 109/109/109 150/150/150
f 148/148/148 150/150/150 151/151/151
f 151/151/151 150/150/150 152/152/152
f 149/149/149 148/148/148 153/153/153
f 153/153/153 148/148/148 151/151/151
f 109/109/109 114/114/114 150/150/150
f 150/150/150 114/114/114 154/154/154
f 114/114/114 115/115/115 154/154/154
f 154/154/154 115/115/115 155/155/155
f 155/155/155 156/156/156 154/154/154
f 154/154/154 156/156/156 157/157/157
f 154/154/154 157/157/157 150/150/150
f 150/150/150 157/157/157 152/152/152
f 118/118/118 158/158/158 115/115/115
f 115/115/115 158/158/158 155/155/155
f 119/119/119 159/159/159 118/118/118
f 118/118/118 159/159/159 158/158/158
f 158/158/158 159/159/159 160/160/160
f 160/160/160 159/159/159 161/161/161
f 155/155/155 158/158/158 156/156/156
f 156/156/156 158/158/158 160/160/160
f 122/122/122 162/162/162 119/119/119
f 119/119/119 162/162/162 159/159/159
f 123/123/123 163/163/163 122/122/122
f 122/122/122 163/163/163 162/162/162
f 162/162/162 163/163/163 164/164/164
f 164/164/164 163/163/163 165/165/165
f 159/159/159 162/162/162 161/161/161
f 161/161/161 162/162/162 164/164/164
f 126/126/126 166/166/166 123/123/123
f 123/123/123 166/166/166 163/163/163
f 126/126/126 127/127/127 166/166/166
f 166/166/166 127/127/127 167/167/167
f 167/167/167 168/168/168 166/166/166
f 166/166/166 168/168/168 169/169/169
f 163/163/163 166/166/166 165/165/165
f 165/165/165 166/166/166 169/169/169
f 127/127/127 130/130/130 167/167/167
f 167/167/167 130/130/130 170/170/170
f 130/130/130 131/131/131 170/170/170
f 170/170/170 131/131/131 171/171/171
f 171/171/171 172/172/172 170/170/170
f 170/170/170 172/172/172 173/173/173
f 170/170/170 173/173/173 167/167/167
f 167/167/167 173/173/173 168/168/168
f 131/131/131 135/135/135 171/171/171
f 171/171/171 135/135/135 174/174/174
f 135/135/135 134/134/134 174/174/174
f 174/174/174 134/134/134 175/175/175
f 175/175/175 176/176/176 174/174/174
f 174/174/174 176/176/176 177/177/177
f 171/171/171 174/174/174 172/172/172
f 172/172/172 174/174/174 177/177/177
f 134/134/134 139/139/139 175/175/175
f 175/175/175 139/139/139 178/178/178
f 138/138/138 179/179/179 139/139/139
f 139/139/139 179/179/179 178/178/178
f 178/178/178 179/179/179 180/180/180
f 180/180/180 179/179/179 181/181/181
f 175/175/175 178/178/178 176/176/176
f 176/176/176 178/178/178 180/180/180
f 138/138/138 143/143/143 179/179/179
f 179/179/179 143/143/143 182/182/182
f 142/142/142 183/183/183 143/143/143
f 143/143/143 183/183/183 182/182/182
f 183/183/183 184/184/184 182/182/182
f 182/182/182 184/184/184 185/185/185
f 179/179/179 182/182/182 181/181/181
f 181/181/181 182/182/182 185/185/185
f 142/142/142 146/146/146 183/183/183
f 183/183/183 146/146/146 186/186/186
f 147/147/147 187/187/187 146/146/146
f 146/146/146 187/187/187 186/186/186
f 186/186/186 187/187/187 188/188/188
f 188/188/188 187/187/187 189/189/189
f 186/186/186 188/188/188 183/183/183
f 183/183/183 188/188/188 184/184/184
f 153/153/153 151/151/151 190/190/190
f 190/190/190 151/151/151 191/191/191
f 152/152/152 192/192/192 151/151/151
f 151/151/151 192/192/192 191/191/191
f 191/191/191 192/192/192 193/193/193
f 193/193/193 192/192/192 194/194/194
f 190/190/190 191/191/191 195/195/195
f 195/195/195 191/191/191 193/193/193
f 152/152/152 157/157/157 192/192/192
f 192/192/192 157/157/157 196/196/196
f 157/157/157 156/156/156 196/196/196
f 196/196/196 156/156/156 197/197/197
f 197/197/197 198/198/198 196/196/196
f 196/196/196 198/198/198 199/199/199
f 192/192/192 196/196/196 194/194/194
f 194/194/194 196/196/196 199/199/199
f 160/160/160 200/200/200 156/156/156
f 156/156/156 200/200/200 197/197/197
f 160/160/160 161/161/161 200/200/200
f 200/200/200 161/161/161 201/201/201
f 200/200/200 201/201/201 202/202/202
f 202/202/202 201/201/201 203/203/203
f 200/200/200 202/202/202 197/197/197
f 197/197/197 202/202/202 198/198/198
f 161/161/161 164/164/164 201/201/201
f 201/201/201 164/164/164 204/204/204
f 164/164/164 165/165/165 204/204/204
f 204/204/204 165/165/165 205/205/205
f 205/205/205 206/206/206 204/204/204
f 204/204/204 206/206/206 207/207/207
f 201/201/201 204/204/204 203/203/203
f 203/203/203 204/204/204 207/207/207
f 169/169/169 208/208/208 165/165/165
f 165/165/165 208/208/208 205/205/205
f 169/169/169 168/168/168 208/208/208
f 208/208/208 168/168/168 209/209/209
f 209/209/209 210/210/210 208/208/208
f 208/208/208 210/210/210 211/211/211
f 205/205/205 208/208/208 206/206/206
f 206/206/206 208/208/208 211/211/211
f 168/168/168 173/173/173 209/209/209
f 209/209/209 173/173/173 212/212/212
f 172/172/172 213/213/213 173/173/173
f 173/173/173 213/213/213 212/212/212
f 212/212/212 213/213/213 214/214/214
f 214/214/214 213/213/213 215/215/215
f 209/209/209 212/212/212 210/210/210
f 210/210/210 212/212/212 214/214/214
f 172/172/172 177/177/177 213/213/213
f 213/213/213 177/177/177 216/216/216
f 176/176/176 217/217/217 177/177/177
f 177/177/177 217/217/217 216/216/216
f 217/217/217 218/218/218 216/216/216
f 216/216/216 218/218/218 219/219/219
f 216/216/216 219/219/219 213/213/213
f 213/213/213 219/219/219 215/215/215
f 180/180/180 220/220/220 176/176/176
f 176/176/176 220/220/220 217/217/217
f 181/181/181 221/221/221 180/180/180
f 180/180/180 221/221/221 220/220/220
f 220/220/220 221/221/221 222/222/222
f 222/222/222 221/221/221 223/223/223
f 217/217/217 220/220/220 218/218/218
f 218/218/218 220/220/220 222/222/222
f 181/181/181 185/185/185 221/221/221
f 221/221/221 185/185/185 224/224/224
f 185/185/185 184/184/184 224/224/224
f 224/224/224 184/184/184 225/225/225
f 224/224/224 225/225/225 226/226/226
f 226/226/226 225/225/225 227/227/227
f 224/224/224 226/226/226 221/221/221
f 221/221/221 226/226/226 223/223/223
f 188/188/188 228/228/228 184/184/184
f 184/184/184 228/228/228 225/225/225
f 189/189/189 229/229/229 188/188/188
f 188/188/188 229/229/229 228/228/228
f 229/229/229 230/230/230 228/228/228
f 228/228/228 230/230/230 231/231/231
f 225/225/225 228/228/228 227/227/227
f 227/227/227 228/228/228 231/231/231
f 193/193/193 232/232/232 195/195/195
f 195/195/195 232/232/232 233/233/233
f 193/193/193 194/194/194 232/232/232
f 232/232/232 194/194/194 234/234/234
f 232/232/232 234/234/234 235/235/235
f 235/235/235 234/234/234 236/236/236
f 233/233/233 232/232/232 237/237/237
f 237/237/237 232/232/232 235/235/235
f 194/194/194 199/199/199 234/234/234
f 234/234/234 199/199/199 238/238/238
f 199/199/199 198/198/198 238/238/238
f 238/238/238 198/198/198 239/239/239
f 238/238/238 239/239/239 240/240/240
f 240/240/240 239/239/239 241/241/241
f 234/234/234 238/238/238 236/236/236
f 236/236/236 238/238/238 240/240/240
f 202/202/202 242/242/242 198/198/198
f 198/198/198 242/242/242 239/239/239
f 203/203/203 243/243/243 202/202/202
f 202/202/202 243/243/243 242/242/242
f 242/242/242 243/243/243 244/244/244
f 244/244/244 243/243/243 245/245/245
f 239/239/239 242/242/242 241/241/241
f 241/241/241 242/242/242 244/244/244
f 203/203/203 207/207/207 243/243/243
f 243/243/243 207/207/207 246/246/246
f 206/206/206 247/247/247 207/207/207
f 207/207/207 247/247/247 246/246/246
f 246/246/246 247/247/247 248/248/248
f 248/248/248 247/247/247 249/249/249
f 243/243/243 246/246/246 245/245/245
f 245/245/245 246/246/246 248/248/248
f 211/211/211 250/250/250 206/206/206
f 206/206/206 250/250/250 247/247/247
f 210/210/210 251/251/251 211/211/211
f 211/211/211 251/251/251 250/250/250
f 250/250/250 251/251/251 252/252/252
f 252/252/252 251/251/251 253/253/253
f 250/250/250 252/252/252 247/247/247
f 247/247/247 252/252/252 249/249/249
f 210/210/210 214/214/214 251/251/251
f 251/251/251 214/214/214 254/254/254
f 215/215/215 255/255/255 214/214/214
f 214/214/214 255/255/255 254/254/254
f 254/254/254 255/255/255 256/256/256
f 256/256/256 255/255/255 257/257/257
f 254/254/254 256/256/256 251/251/251
f 251/251/251 256/256/256 253/253/253
f 215/215/215 219/219/219 255/255/255
f 255/255/255 219/219/219 258/258/258
f 218/218/218 259/259/259 219/219/219
f 219/219/219 259/259/259 258/258/258
f 258/258/258 259/259/259 260/260/260
f 260/260/260 259/259/259 261/261/261
f 258/258/258 260/260/260 255/255/255
f 255/255/255 260/260/260 257/257/257
f 218/218/218 222/222/222 259/259/259
f 259/259/259 222/222/222 262/262/262
f 223/223/223 263/263/263 222/222/222
f 222/222/222 263/263/263 262/262/262
f 263/263/263 264/264/264 262/262/262
f 262/262/262 264/264/264 265/265/265
f 262/262/262 265/265/265 259/259/259
f 259/259/259 265/265/265 261/261/261
f 223/223/223 226/226/226 263/263/263
f 263/263/263 226/226/226 266/266/266
f 226/226/226 227/227/227 266/266/266
f 266/266/266 227/227/227 267/267/267
f 266/266/266 267/267/267 268/268/268
f 268/268/268 267/267/267 269/269/269
f 263/263/263 266/266/266 264/264/264
f 264/264/264 266/266/266 268/268/268
f 231/231/231 270/270/270 227/227/227
f 227/227/227 270/270/270 267/267/267
f 231/231/231 230/230/230 270/270/270
f 270/270/270 230/230/230 271/271/271
f 271/271/271 272/272/272 270/270/270
f 270/270/270 272/272/272 273/273/273
f 270/270/270 273/273/273 267/267/267
f 267/267/267 273/273/273 269/269/269
f 237/237/237 235/235/235 274/274/274
f 274/274/274 235/235/235 275/275/275
f 235/235/235 236/236/236 275/275/275
f 275/275/275 236/236/236 276/276/276
f 276/276/276 277/277/277 275/275/275
f 275/275/275 277/277/277 278/278/278
f 275/275/275 278/278/278 274/274/274
f 274/274/274 278/278/278 279/279/279
f 240/240/240 280/280/280 236/236/236
f 236/236/236 280/280/280 276/276/276
f 240/240/240 241/241/241 280/280/280
f 280/280/280 241/241/241 281/281/281
f 280/280/280 281/281/281 282/282/282
f 282/282/282 281/281/281 283/283/283
f 276/276/276 280/280/280 277/277/277
f 277/277/277 280/280/280 282/282/282
f 241/241/241 244/244/244 281/281/281
f 281/281/281 244/244/244 284/284/284
f 244/244/244 245/245/245 284/284/284
f 284/284/284 245/245/245 285/285/285
f 285/285/285 286/286/286 284/284/284
f 284/284/284 286/286/286 287/287/287
f 281/281/281 284/284/284 283/283/283
f 283/283/283 284/284/284 287/287/287
f 245/245/245 248/248/248 285/285/285
f 285/285/285 248/248/248 288/288/288
f 248/248/248 249/249/249 288/288/288
f 288/288/288 249/249/249 289/289/289
f 288/288/288 289/289/289 290/290/290
f 290/290/290 289/289/289 291/291/291
f 288/288/288 290/290/290 285/285/285
f 285/285/285 290/290/290 286/286/286
f 249/249/249 252/252/252 289/289/289
f 289/289/289 252/252/252 292/292/292
f 253/253/253 293/293/293 252/252/252
f 252/252/252 293/293/293 292/292/292
f 293/293/293 294/294/294 292/292/292
f 292/292/292 294/294/294 295/295/295
f 289/289/289 292/292/292 291/291/291
f 291/291/291 292/292/292 295/295/295
f 253/253/253 256/256/256 293/293/293
f 293/293/293 256/256/256 296/296/296
f 256/256/256 257/257/257 296/296/296
f 296/296/296 257/257/257 297/297/297
f 297/297/297 298/298/298 296/296/296
f 296/296/296 298/298/298 299/299/299
f 293/293/293 296/296/296 294/294/294
f 294/294/294 296/296/296 299/299/299
f 257/257/257 260/260/260 297/297/297
f 297/297/297 260/260/260 300/300/300
f 260/260/260 261/261/261 300/300/300
f 300/300/300 261/261/261 301/301/301
f 300/300/300 301/301/301 302/302/302
f 302/302/302 301/301/301 303/303/303
f 300/300/300 302/302/302 297/297/297
f 297/297/297 302/302/302 298/298/298
f 261/261/261 265/265/265 301/301/301
f 301/301/301 265/265/265 304/304/304
f 264/264/264 305/305/305 265/265/265
f 265/265/265 305/305/305 304/304/304
f 304/304/304 305/305/305 306/306/306
f 306/306/306 305/305/305 307/307/307
f 304/304/304 306/306/306 301/301/301
f 301/301/301 306/306/306 303/303/303
f 264/264/264 268/268/268 305/305/305
f 305/305/305 268/268/268 308/308/308
f 268/268/268 269/269/269 308/308/308
f 308/308/308 269/269/269 309/309/309
f 308/308/308 309/309/309 310/310/310
f 310/310/310 309/309/309 311/311/311
f 305/305/305 308/308/308 307/307/307
f 307/307/307 308/308/308 310/310/310
f 269/269/269 273/273/273 309/309/309
f 309/309/309 273/273/273 312/312/312
f 273/273/273 272/272/272 312/312/312
f 312/312/312 272/272/272 313/313/313
f 312/312/312 313/313/313 314/314/314
f 314/314/314 313/313/313 315/315/315
f 312/312/312 314/314/314 309/309/309
f 309/309/309 314/314/314 311/311/311
f 278/278/278 316/316/316 279/279/279
f 279/279/279 316/316/316 317/317/317
f 277/277/277 318/318/318 278/278/278
f 278/278/278 318/318/318 316/316/316
f 318/318/318 319/319/319 316/316/316
f 316/316/316 319/319/319 320/320/320
f 316/316/316 320/320/320 317/317/317
f 317/317/317 320/320/320 321/321/321
f 277/277/277 282/282/282 318/318/318
f 318/318/318 282/282/282 322/322/322
f 282/282/282 283/283/283 322/322/322
f 322/322/322 283/283/283 323/323/323
f 322/322/322 323/323/323 324/324/324
f 324/324/324 323/323/323 325/325/325
f 318/318/318 322/322/322 319/319/319
f 319/319/319 322/322/322 324/324/324
f 287/287/287 326/326/326 283/283/283
f 283/283/283 326/326/326 323/323/323
f 287/287/287 286/286/286 326/326/326
f 326/326/326 286/286/286 327/327/327
f 326/326/326 327/327/327 328/328/328
f 328/328/328 327/327/327 329/329/329
f 326/326/326 328/328/328 323/323/323
f 323/323/323 328/328/328 325/325/325
f 290/290/290 330/330/330 286/286/286
f 286/286/286 330/330/330 327/327/327
f 291/291/291 331/331/331 290/290/290
f 290/290/290 331/331/331 330/330/330
f 331/331/331 332/332/332 330/330/330
f 330/330/330 332/332/332 333/333/333
f 327/327/327 330/330/330 329/329/329
f 329/329/329 330/330/330 333/333/333
f 291/291/291 295/295/295 331/331/331
f 331/331/331 295/295/295 334/334/334
f 295/295/295 294/294/294 334/334/334
f 334/334/334 294/294/294 335/335/335
f 335/335/335 336/336/336 334/334/334
f 334/334/334 336/336/336 337/337/337
f 334/334/334 337/337/337 331/331/331
f 331/331/331 337/337/337 332/332/332
f 299/299/299 338/338/338 294/294/294
f 294/294/294 338/338/338 335/335/335
f 299/299/299 298/298/298 338/338/338
f 338/338/338 298/298/298 339/339/339
f 339/339/339 340/340/340 338/338/338
f 338/338/338 340/340/340 341/341/341
f 335/335/335 338/338/338 336/336/336
f 336/336/336 338/338/338 341/341/341
f 302/302/302 342/342/342 298/298/298
f 298/298/298 342/342/342 339/339/339
f 303/303/303 343/343/343 302/302/302
f 302/302/302 343/343/343 342/342/342
f 343/343/343 344/344/344 342/342/342
f 342/342/342 344/344/344 345/345/345
f 339/339/339 342/342/342 340/340/340
f 340/340/340 342/342/342 345/345/345
f 303/303/303 306/306/306 343/343/343
f 343/343/343 306/306/306 346/346/346
f 307/307/307 347/347/347 306/306/306
f 306/306/306 347/347/347 346/346/346
f 346/346/346 347/347/347 348/348/348
f 348/348/348 347/347/347 349/349/349
f 346/346/346 348/348/348 343/343/343
f 343/343/343 348/348/348 344/344/344
f 310/310/310 350/350/350 307/307/307
f 307/307/307 350/350/350 347/347/347
f 311/311/311 351/351/351 310/310/310
f 310/310/310 351/351/351 350/350/350
f 350/350/350 351/351/351 352/352/352
f 352/352/352 351/351/351 353/353/353
f 347/347/347 350/350/350 349/349/349
f 349/349/349 350/350/350 352/352/352
f 314/314/314 354/354/354 311/311/311
f 311/311/311 354/354/354 351/351/351
f 315/315/315 355/355/355 314/314/314
f 314/314/314 355/355/355 354/354/354
f 354/354/354 355/355/355 356/356/356
f 356/356/356 355/355/355 357/357/357
f 351/351/351 354/354/354 353/353/353
f 353/353/353 354/354/354 356/356/356
f 321/321/321 320/320/320 358/358/358
f 358/358/358 320/320/320 359/359/359
f 320/320/320 319/319/319 359/359/359
f 359/359/359 319/319/319 360/360/360
f 359/359/359 360/360/360 361/361/361
f 361/361/361 360/360/360 362/362/362
f 358/358/358 359/359/359 363/363/363
f 363/363/363 359/359/359 361/361/361
f 319/319/319 324/324/324 360/360/360
f 360/360/360 324/324/324 364/364/364
f 324/324/324 325/325/325 364/364/364
f 364/364/364 325/325/325 365/365/365
f 365/365/365 366/366/366 364/364/364
f 364/364/364 366/366/366 367/367/367
f 360/360/360 364/364/364 362/362/362
f 362/362/362 364/364/364 367/367/367
f 328/328/328 368/368/368 325/325/325
f 325/325/325 368/368/368 365/365/365
f 328/328/328 329/329/329 368/368/368
f 368/368/368 329/329/329 369/369/369
f 368/368/368 369/369/369 370/370/370
f 370/370/370 369/369/369 371/371/371
f 368/368/368 370/370/370 365/365/365
f 365/365/365 370/370/370 366/366/366
f 333/333/333 372/372/372 329/329/329
f 329/329/329 372/372/372 369/369/369
f 333/333/333 332/332/332 372/372/372
f 372/372/372 332/332/332 373/373/373
f 372/372/372 373/373/373 374/374/374
f 374/374/374 373/373/373 375/375/375
f 369/369/369 372/372/372 371/371/371
f 371/371/371 372/372/372 374/374/374
f 337/337/337 376/376/376 332/332/332
f 332/332/332 376/376/376 373/373/373
f 337/337/337 336/336/336 376/376/376
f 376/376/376 336/336/336 377/377/377
f 376/376/376 377/377/377 378/378/378
f 378/378/378 377/377/377 379/379/379
f 373/373/373 376/376/376 375/375/375
f 375/375/375 376/376/376 378/378/378
f 336/336/336 341/341/341 377/377/377
f 377/377/377 341/341/341 380/380/380
f 340/340/340 381/381/381 341/341/341
f 341/341/341 381/381/381 380/380/380
f 380/380/380 381/381/381 382/382/382
f 382/382/382 381/381/381 383/383/383
f 377/377/377 380/380/380 379/379/379
f 379/379/379 380/380/380 382/382/382
f 345/345/345 384/384/384 340/340/340
f 340/340/340 384/384/384 381/381/381
f 345/345/345 344/344/344 384/384/384
f 384/384/384 344/344/344 385/385/385
f 385/385/385 386/386/386 384/384/384
f 384/384/384 386/386/386 387/387/387
f 381/381/381 384/384/384 383/383/383
f 383/383/383 384/384/384 387/387/387
f 344/344/344 348/348/348 385/385/385
f 385/385/385 348/348/348 388/388/388
f 348/348/348 349/349/349 388/388/388
f 388/388/388 349/349/349 389/389/389
f 388/388/388 389/389/389 390/390/390
f 390/390/390 389/389/389 391/391/391
f 388/388/388 390/390/390 385/385/385
f 385/385/385 390/390/390 386/386/386
f 349/349/349 352/352/352 389/389/389
f 389/389/389 352/352/352 392/392/392
f 352/352/352 353/353/353 392/392/392
f 392/392/392 353/353/353 393/393/393
f 392/392/392 393/393/393 394/394/394
f 394/394/394 393/393/393 395/395/395
f 389/389/389 392/392/392 391/391/391
f 391/391/391 392/392/392 394/394/394
f 356/356/356 396/396/396 353/353/353
f 353/353/353 396/396/396 393/393/393
f 356/356/356 357/357/357 396/396/396
f 396/396/396 357/357/357 397/397/397
f 397/397/397 398/398/398 396/396/396
f 396/396/396 398/398/398 399/399/399
f 393/393/393 396/396/396 395/395/395
f 395/395/395 396/396/396 399/399/399
f 363/363/363 361/361/361 400/400/400
f 400/400/400 361/361/361 401/401/401
f 361/361/361 362/362/362 401/401/401
f 401/401/401 362/362/362 402/402/402
f 402/402/402 403/403/403 401/401/401
f 401/401/401 403/403/403 404/404/404
f 400/400/400 401/401/401 405/405/405
f 405/405/405 401/401/401 404/404/404
f 367/367/367 406/406/406 362/362/362
f 362/362/362 406/406/406 402/402/402
f 366/366/366 407/407/407 367/367/367
f 367/367/367 407/407/407 406/406/406
f 406/406/406 407/407/407 408/408/408
f 408/408/408 407/407/407 409/409/409
f 406/406/406 408/408/408 402/402/402
f 402/402/402 408/408/408 403/403/403
f 366/366/366 370/370/370 407/407/407
f 407/407/407 370/370/370 410/410/410
f 370/370/370 371/371/371 410/410/410
f 410/410/410 371/371/371 411/411/411
f 411/411/411 412/412/412 410/410/410
f 410/410/410 412/412/412 413/413/413
f 410/410/410 413/413/413 407/407/407
f 407/407/407 413/413/413 409/409/409
f 371/371/371 374/374/374 411/411/411
f 411/411/411 374/374/374 414/414/414
f 374/374/374 375/375/375 414/414/414
f 414/414/414 375/375/375 415/415/415
f 415/415/415 416/416/416 414/414/414
f 414/414/414 416/416/416 417/417/417
f 411/411/411 414/414/414 412/412/412
f 412/412/412 414/414/414 417/417/417
f 375/375/375 378/378/378 415/415/415
f 415/415/415 378/378/378 418/418/418
f 378/378/378 379/379/379 418/418/418
f 418/418/418 379/379/379 419/419/419
f 418/418/418 419/419/419 420/420/420
f 420/420/420 419/419/419 421/421/421
f 415/415/415 418/418/418 416/416/416
f 416/416/416 418/418/418 420/420/420
f 379/379/379 382/382/382 419/419/419
f 419/419/419 382/382/382 422/422/422
f 383/383/383 423/423/423 382/382/382
f 382/382/382 423/423/423 422/422/422
f 422/422/422 423/423/423 424/424/424
f 424/424/424 423/423/423 425/425/425
f 422/422/422 424/424/424 419/419/419
f 419/419/419 424/424/424 421/421/421
f 387/387/387 426/426/426 383/383/383
f 383/383/383 426/426/426 423/423/423
f 387/387/387 386/386/386 426/426/426
f 426/426/426 386/386/386 427/427/427
f 427/427/427 428/428/428 426/426/426
f 426/426/426 428/428/428 429/429/429
f 423/423/423 426/426/426 425/425/425
f 425/425/425 426/426/426 429/429/429
f 390/390/390 430/430/430 386/386/386
f 386/386/386 430/430/430 427/427/427
f 390/390/390 391/391/391 430/430/430
f 430/430/430 391/391/391 431/431/431
f 431/431/431 432/432/432 430/430/430
f 430/430/430 432/432/432 433/433/433
f 430/430/430 433/433/433 427/427/427
f 427/427/427 433/433/433 428/428/428
f 391/391/391 394/394/394 431/431/431
f 431/431/431 394/394/394 434/434/434
f 394/394/394 395/395/395 434/434/434
f 434/434/434 395/395/395 435/435/435
f 435/435/435 436/436/436 434/434/434
f 434/434/434 436/436/436 437/437/437
f 431/431/431 434/434/434 432/432/432
f 432/432/432 434/434/434 437/437/437
f 399/399/399 438/438/438 395/395/395
f 395/395/395 438/438/438 435/435/435
f 399/399/399 398/398/398 438/438/438
f 438/438/438 398/398/398 439/439/439
f 438/438/438 439/439/439 440/440/440
f 440/440/440 439/439/439 441/441/441
f 435/435/435 438/438/438 436/436/436
f 436/436/436 438/438/438 440/440/440
